# xmcd CD database file
#
# Track frame offsets:
#	150
#	27737
#	58193
#	77791
#	101838
#	126248
#	141838
#	173695
#	197976
#	225022
#	243218
#	275876
#	294808
#	328535
#
# Disc length: 4623 seconds
#
# Revision: 0
# Processed by: cddbd v1.5.2PL0 Copyright (c) Steve Scherf et al.
# Submitted via: CDex 1.70beta2
#
DISCID=ca120d0e
DTITLE=Jaime Ikeda - ULTRA SEXY/COOL
DYEAR=2007
DGENRE=New Age
TTITLE0=David Chong/When the Feeling is Right
TTITLE1=K 'n R featuring Gina/Di Me Cuando
TTITLE2=Spacesheep/Last Train
TTITLE3=David Chong/A New Life
TTITLE4=Spacesheep/Every Kind of Music
TTITLE5=K 'n R featuring Gina/Protection (Extended Vocals Club Mix)
TTITLE6=David Chong/Trippin'
TTITLE7=Ozone Cocktail/Do You Feel Hot Enough
TTITLE8=Thomas Di Matteo/My Love
TTITLE9=Spacesheep/Maya
TTITLE10=Funky Serenity/Noyade
TTITLE11=Jean Michel Jarre/Zoolookologie
TTITLE12=Jean Michel Jarre/Oxygene 8 (Sunday Club)
TTITLE13=Eldissa/Could It Be Magic
EXTD=YEAR: 2007
EXTT0=
EXTT1=
EXTT2=
EXTT3=
EXTT4=
EXTT5=
EXTT6=
EXTT7=
EXTT8=
EXTT9=
EXTT10=
EXTT11=
EXTT12=
EXTT13=
PLAYORDER=
